<svg xmlns="http://www.w3.org/2000/svg" viewBox="0 0 1200 630" width="1200" height="630">
  <defs>
    <linearGradient id="bg" x1="0" y1="0" x2="1" y2="1">
      <stop offset="0%" stop-color="#F4F9FB"/>
      <stop offset="100%" stop-color="#DBEFF8"/>
    </linearGradient>
    <linearGradient id="blueBlob" x1="0" y1="0" x2="1" y2="1">
      <stop offset="0%" stop-color="#29B1E0" stop-opacity="0.25"/>
      <stop offset="100%" stop-color="#29B1E0" stop-opacity="0"/>
    </linearGradient>
    <linearGradient id="orangeBlob" x1="0" y1="0" x2="1" y2="1">
      <stop offset="0%" stop-color="#EE7D2C" stop-opacity="0.22"/>
      <stop offset="100%" stop-color="#EE7D2C" stop-opacity="0"/>
    </linearGradient>
  </defs>
  <rect width="1200" height="630" fill="url(#bg)"/>
  <circle cx="150" cy="130" r="340" fill="url(#blueBlob)"/>
  <circle cx="1050" cy="520" r="320" fill="url(#orangeBlob)"/>
  <g transform="translate(96, 120)">
    <g transform="translate(0, 0)">
      <rect x="0" y="0" rx="20" ry="20" width="72" height="72" fill="#29B1E0"/>
      <path d="M16 60v-8c0-7 5-13 13-13 5 0 8 2 10 5 1-3 5-5 10-5 7 0 13 6 13 13v8" fill="none" stroke="#ffffff" stroke-width="5" stroke-linecap="round" stroke-linejoin="round"/>
      <circle cx="36" cy="22" r="5" fill="#EE7D2C"/>
    </g>
    <text x="94" y="48" font-family="'Inter', 'Helvetica Neue', Arial, sans-serif" font-weight="700" font-size="36" fill="#16293D" letter-spacing="-0.5">AvisDoc</text>
  </g>
  <text x="96" y="280" font-family="'Fraunces', 'Georgia', serif" font-weight="600" font-size="84" fill="#16293D" letter-spacing="-2.5">La dermatologie</text>
  <text x="96" y="376" font-family="'Fraunces', 'Georgia', serif" font-weight="600" font-style="italic" font-size="84" fill="#1F8FB8" letter-spacing="-2.5">n'attend pas.</text>
  <text x="96" y="460" font-family="'Inter', 'Helvetica Neue', Arial, sans-serif" font-weight="400" font-size="28" fill="#33475A">
    Téléexpertise dermatologique · Avis d'expert sous 96 h · France
  </text>
  <g transform="translate(96, 520)">
    <rect x="0" y="0" rx="28" ry="28" width="260" height="56" fill="#29B1E0"/>
    <text x="30" y="36" font-family="'Inter', sans-serif" font-weight="600" font-size="20" fill="#ffffff">avisdoc.fr</text>
  </g>
  <g transform="translate(380, 520)">
    <circle cx="12" cy="28" r="5" fill="#EE7D2C"/>
    <text x="28" y="36" font-family="'Inter', sans-serif" font-weight="500" font-size="20" fill="#33475A">Hébergement HDS · RGPD</text>
  </g>
</svg>
